<?xml version="1.0" encoding="UTF-8"?>
<!DOCTYPE svg PUBLIC "-//W3C//DTD SVG 1.1//EN" "http://www.w3.org/Graphics/SVG/1.1/DTD/svg11.dtd">
<svg xmlns="http://www.w3.org/2000/svg"  xmlns:sodipodi="http://sodipodi.sourceforge.net/DTD/sodipodi-0.dtd" xmlns:inkscape="http://www.inkscape.org/namespaces/inkscape" version="1.1" viewBox="0 0 57 57" stroke="none">
   <g id="g19352" transform="translate(4,0) matrix(0.04059422,0,0,0.03965876,16.380076,0.35479734) translate(4,0)">
      <path d="m 262,21.663 c -0.871,0.075 -1.97078,0.174806 -2.22978,0.275806 -4.92431,0.770462 -9.08901,2.997051 -12.87722,6.253194 -0.58658,0.459806 -1.33825,0.94375 -1.33825,0.94375 -0.047,0 -0.0548,-2.56075 -0.0548,-2.56075 l -0.0256,-3.341709 -12.35161,-0.04659 c 0,0 0.0322,36.393899 0.009,54.215194 l 12.31105,-0.02058 c 0,0 0.0557,-9.716356 0.0568,-16.442311 0.12697,-17.596651 -0.42171,-23.248148 9.87844,-27.476505 5.07617,-1.581228 10.88186,-1.851079 14.45456,-0.129495 6.52575,4.121876 5.77453,13.453921 5.59917,26.008 l -0.25817,18.045125 12.20412,0.0026 0.10175,-18.171687 c 0.44506,-11.567686 -0.0353,-22.838107 12.01678,-26.167643 7.6572,-1.37766 10.96117,-0.638217 12.98569,0.435662 5.09332,3.662911 4.17265,10.204174 4.35353,25.129981 l 0.13858,18.819592 12.38052,-0.0301 -0.0221,-20.173537 c -0.23301,-7.068953 0.93156,-19.254655 -1.986,-25.231 -3.8854,-7.233104 -10.3751,-10.431724 -21.89913,-10.385723 -6.08526,0.0543 -13.20068,2.080878 -20.44787,8.590723 -6.42632,-8.727068 -13.34109,-9.034051 -23,-8.542" fill="#04acec" sodipodi:nodetypes="cccscccccccccccccccccccccc" id="path19337"/>
      <path d="m 358.59375,21.8485 c -5.60161,0.944798 -8.87496,2.41586 -12.69775,5.0925 -0.403,0.307 -0.768,0.559 -0.812,0.559 -6.1113,4.287991 -9.3989,10.619069 -10.736,17.258 -0.539,0.563 -0.607,8.845 -0.088,10.838 1.11311,6.828247 4.53944,13.272733 9.79806,17.275388 5.20149,4.367447 10.41833,5.295782 18.69894,6.309612 3.54068,0.134548 7.40355,0.107441 10.735,-0.519 9.24173,-2.051697 18.44356,-7.756857 22.58478,-18.761048 L 383.948,59.833 c -2.32914,3.840404 -4.97331,7.008911 -11.781,8.464 -9.49165,0.611188 -16.59506,0.251853 -22.697,-7.471 -1.11423,-2.095389 -2.37217,-4.247803 -2.47,-6.493 h 24.891 l 25.208,-0.352 c -0.5509,-22.586141 -13.64464,-30.873938 -24.216,-32.086 -2.19685,-0.262806 -8.13752,-0.85154 -12.90214,-0.29604 m 10.04793,10.10468 c 5.49984,0.29889 13.13287,5.375799 14.24721,12.79636 l -37.4375,-0.2545 c 4.10378,-9.344975 10.24367,-12.257021 17.97862,-12.617304" fill="#ec048c" sodipodi:nodetypes="ccccccccccccccccccccc" id="path19339"/>
      <path d="m 2.9541984,3.667784 0.00102,36.898625 0.00279,36.723341 13.2054996,0.04327 -0.0075,-4.341941 c 0,0 -0.09402,-0.530991 0.423048,-0.331059 4.441528,3.605127 9.655302,5.64532 15.004,6.361 7.731794,0.506002 16.943707,0.04222 23.449,-4.86 C 62.971792,68.551989 66.517473,61.091754 66.872,55.362 c 0,0 0.278,-9.416 -0.058,-9.624 C 66.513376,42.868176 65.532128,40.07402 64.317,37.609 63.738935,36.113812 62.772692,34.788003 61.839,33.5 61.781,33.454 61.553,33.154 61.332,32.833 60.335,31.387 57.793,29.055 55.57,27.547 49.298099,23.342311 42.798243,22.367205 36.527,22.233 c -2.360431,-0.145903 -4.897693,0.144233 -6.965,0.442 -0.7265,0.139795 -1.471326,0.31266 -2.145,0.492 -1.199032,0.325298 -2.352659,0.664879 -3.417,1.127 -3.09188,1.234955 -5.347114,3.034855 -7.722,4.873 L 16.018019,3.661301 m 193.156341,0.056019 0.20064,75.589305 7.32902,-0.01781 c 0,0 0.046,-25.728668 0.046,-37.855806 0,-36.3540003 -0.0116,-37.7597479 -0.0116,-37.7597479 M 158.24119,21.640179 C 143.1958,22.882 139.96293,28.88633 137.9285,35.234 c -1.04593,3.997744 -0.41156,7.845544 1.4415,11.046 0.89658,1.538655 2.19058,2.905399 3.63,3.93 0.412,0.285 0.787,0.56 0.833,0.612 5.60965,3.455163 12.16231,3.87351 18.76,4.495 4.63985,0.514225 17.23382,-0.06594 17.574,6.933 -1.01532,9.836558 -15.17653,7.771103 -21.167,7.07 -4.63328,-1.476533 -8.31368,-2.3376 -10.478,-6.07 -0.64438,-1.226909 -1.22,-3.78 -1.22,-3.78 l -11.79117,10e-4 0.15617,2.612 c 0.45165,3.630788 2.17647,7.477035 4.896,10.057 1.04,0.962 2.044,1.816 2.52,2.144 8.98289,5.156774 20.10527,5.674408 30.75,4.402 6.19973,-1.106318 10.00718,-2.597341 14.372,-6.161 3.28594,-3.11679 4.7897,-7.552636 4.795,-11.775 0.17612,-4.637693 -3.24046,-9.382817 -6.714,-11.399 -0.478,-0.253 -1.019,-0.539 -1.203,-0.636 -0.183,-0.097 -0.558,-0.269 -0.833,-0.382 -5.16941,-2.13547 -10.87597,-2.365489 -15.84375,-3.04675 -5.09177,-0.269018 -10.502,-1.065393 -14.83142,-1.657755 C 150.81983,42.965583 148.933,38.804 150.236,36.084 c 1.491,-3.114 6.441,-4.986 13.181,-4.986 4.53202,0.263058 12.07736,0.972775 14.529,5.735 0.68664,1.378426 1.0341,2.838354 1.29103,4.200146 2.0785,7.21e-4 10.06797,-0.03555 12.14647,-0.03055 -0.70362,-8.861169 -7.22495,-16.074775 -14.9755,-17.9936 C 170.77429,21.678799 166.39967,21.38937 159.64966,21.548 M 38.520632,32.17839 c 8.900638,1.025329 13.16365,5.759308 15.400368,14.21661 0.479738,5.97414 0.07482,8.881441 -1.611,13.046 -1.25587,2.442148 -3.050231,4.625809 -5.289,6.257 -5.120591,2.954936 -9.924041,3.643389 -15.103,3.229 -9.906976,-1.397451 -13.895532,-6.125012 -16.084,-14.344 -0.307058,-5.705298 -0.241399,-10.756239 2.839,-14.916 2.693828,-2.989047 5.118717,-4.706577 8.078,-6 3.71092,-1.266833 4.457712,-1.474483 8.217631,-1.589941 m 35.393463,-28.3302712 0.001,36.8986252 0.0028,36.723341 13.2055,0.04327 -0.0075,-4.341941 c 0,0 -0.09402,-0.530991 0.423048,-0.331059 4.441528,3.605127 9.655302,5.64532 15.004,6.361 7.731798,0.506002 16.943708,0.04222 23.448998,-4.86 7.93974,-5.609031 11.48542,-13.069266 11.83995,-18.79902 0,0 0.278,-9.416 -0.058,-9.624 -0.30063,-2.869824 -1.28188,-5.66398 -2.497,-8.129 -0.57807,-1.495188 -1.54431,-2.820997 -2.478,-4.109 -0.058,-0.046 -0.286,-0.346 -0.507,-0.667 -0.997,-1.446 -3.539,-3.778 -5.762,-5.286 -6.27191,-4.204689 -12.77176,-5.179795 -19.043,-5.314 -2.36044,-0.145903 -4.897697,0.144233 -6.965004,0.442 -0.7265,0.139795 -1.471326,0.31266 -2.145,0.492 -1.199032,0.325298 -2.352659,0.664879 -3.417,1.127 -3.09188,1.234955 -5.347114,3.034855 -7.722,4.873 L 83.425915,3.7403048 M 105.92853,32.257394 c 8.90064,1.025329 13.16365,5.759308 15.40037,14.21661 0.47973,5.97414 0.0748,8.881441 -1.611,13.046 -1.25587,2.442148 -3.05024,4.625809 -5.289,6.257 -5.1206,2.954936 -9.92405,3.643389 -15.103004,3.229 -9.906976,-1.397451 -13.895532,-6.125012 -16.084,-14.344 -0.307058,-5.705298 -0.241399,-10.756239 2.839,-14.916 2.693828,-2.989047 5.118717,-4.706577 8.078,-6 3.71092,-1.266833 4.457712,-1.474483 8.217634,-1.589941" fill="#3c3434" sodipodi:nodetypes="cccccccccccccccccccccccccccccccccccccccccccccccscccccccccccccccccccccccccccccccccccccccccccc" id="path19341"/>
   </g>

   <rect style="fill:#04acec;fill-opacity:1;fill-rule:evenodd;stroke-width:1.42692" id="rect19522" width="18" height="1" x="1.5" y="1.5"/>
   <rect style="fill:#04acec;fill-opacity:1;fill-rule:evenodd;stroke-width:0.705489" id="rect19522-7" width="18" height="1" x="37.5" y="1.5"/>
   <rect style="fill:#04acec;fill-opacity:1;fill-rule:evenodd;stroke-width:2.01797" id="rect19522-3" width="1" height="52.2" x="54.5" y="2.4"/>
   <rect style="fill:#04acec;fill-opacity:1;fill-rule:evenodd;stroke-width:2.01797" id="rect19522-3-9" width="1" height="52.2" x="1.5" y="2.4"/>
   <rect style="fill:#04acec;fill-opacity:1;fill-rule:evenodd;stroke-width:2.00673" id="rect19522-3-6" width="54" height="1" x="1.5" y="54.5"/>
</svg>